<svg width="7" height="7" viewBox="0 0 7 7" fill="none" xmlns="http://www.w3.org/2000/svg">
<path d="M6.16367 3.47361C6.18009 3.84033 6.12211 4.20659 5.99321 4.55031C5.86432 4.89403 5.66718 5.2081 5.41367 5.47361C5.12959 5.7669 4.78677 5.9969 4.40765 6.14855C4.02853 6.3002 3.62167 6.37007 3.21368 6.35361C2.80333 6.36275 2.39548 6.2876 2.01534 6.13279C1.63521 5.97799 1.29088 5.74682 1.00367 5.45361C0.420981 4.85757 0.0947266 4.05715 0.0947266 3.22361C0.0947266 2.39007 0.420981 1.58964 1.00367 0.993607C1.44917 0.558291 2.01339 0.264344 2.62543 0.148696C3.23748 0.0330481 3.87005 0.100859 4.44368 0.343608C4.80428 0.491838 5.12591 0.721091 5.38367 1.01361L4.85368 1.54361C4.65509 1.30438 4.40346 1.11474 4.11878 0.98976C3.83409 0.864777 3.52419 0.807887 3.21368 0.823607C2.8217 0.826319 2.43635 0.924999 2.09132 1.11102C1.74628 1.29705 1.45206 1.56475 1.23438 1.89073C1.01669 2.21672 0.882168 2.59106 0.84256 2.98104C0.802952 3.37102 0.859464 3.76477 1.00716 4.12787C1.15486 4.49096 1.38925 4.81235 1.68984 5.06395C1.99043 5.31554 2.34807 5.48968 2.73149 5.57115C3.11492 5.65261 3.51247 5.63892 3.88938 5.53127C4.2663 5.42362 4.61111 5.22529 4.89368 4.95361C5.19913 4.61871 5.37624 4.18654 5.39368 3.73361H3.21368V3.01361H6.12368C6.14645 3.16597 6.1598 3.3196 6.16367 3.47361Z" fill="white" stroke="white" stroke-width="0.1892" stroke-miterlimit="10"/>
</svg>
