<svg width="7" height="7" viewBox="0 0 7 7" fill="none" xmlns="http://www.w3.org/2000/svg">
<path d="M5.37481 5.44475C5.08599 5.73381 4.74303 5.96312 4.36554 6.11957C3.98805 6.27602 3.58344 6.35655 3.17481 6.35655C2.76619 6.35655 2.36157 6.27602 1.98408 6.11957C1.60659 5.96312 1.26363 5.73381 0.974808 5.44475C0.409486 4.8438 0.0947266 4.04982 0.0947266 3.22475C0.0947266 2.39969 0.409486 1.6057 0.974808 1.00475C1.2574 0.707552 1.59925 0.472986 1.97822 0.316231C2.35719 0.159475 2.76484 0.0840225 3.17481 0.0947532C3.58421 0.0882771 3.99059 0.165673 4.36894 0.322174C4.7473 0.478675 5.08961 0.71097 5.37481 1.00475C5.66235 1.29724 5.88837 1.64438 6.03951 2.02568C6.19066 2.40698 6.26386 2.81469 6.25481 3.22475C6.26793 3.63532 6.19659 4.04421 6.04522 4.42609C5.89385 4.80796 5.66566 5.15468 5.37481 5.44475ZM1.54481 4.94475C1.75783 5.16063 2.01162 5.33204 2.29144 5.44904C2.57125 5.56603 2.87152 5.62627 3.17481 5.62627C3.4781 5.62627 3.77837 5.56603 4.05818 5.44904C4.338 5.33204 4.59178 5.16063 4.80481 4.94475C5.2363 4.47588 5.4758 3.86195 5.4758 3.22475C5.4758 2.58755 5.2363 1.97363 4.80481 1.50475C4.59178 1.28888 4.338 1.11746 4.05818 1.00047C3.77837 0.883475 3.4781 0.823231 3.17481 0.823231C2.87152 0.823231 2.57125 0.883475 2.29144 1.00047C2.01162 1.11746 1.75783 1.28888 1.54481 1.50475C1.11332 1.97363 0.873817 2.58755 0.873817 3.22475C0.873817 3.86195 1.11332 4.47588 1.54481 4.94475Z" fill="white" stroke="white" stroke-width="0.1892" stroke-miterlimit="10"/>
</svg>
