<svg width="85" height="17" viewBox="0 0 85 17" fill="none" xmlns="http://www.w3.org/2000/svg">
<path d="M27.2671 4.705C26.4245 4.70698 25.6015 4.95876 24.902 5.4285C24.2026 5.89824 23.6581 6.56484 23.3375 7.344C23.0169 8.12317 22.9346 8.97991 23.1009 9.80588C23.2672 10.6319 23.6747 11.39 24.2719 11.9843C24.869 12.5787 25.629 12.9826 26.4558 13.1451C27.2825 13.3075 28.1389 13.2211 28.9165 12.8969C29.6942 12.5726 30.3582 12.0251 30.8247 11.3234C31.2911 10.6218 31.539 9.79755 31.5371 8.955C31.5452 8.39294 31.4402 7.83498 31.2282 7.31435C31.0163 6.79371 30.7017 6.32105 30.3033 5.92451C29.9049 5.52796 29.4308 5.21563 28.9091 5.00613C28.3875 4.79662 27.8291 4.69421 27.2671 4.705ZM27.2671 11.535C26.7506 11.5711 26.2353 11.451 25.788 11.1904C25.3407 10.9297 24.9822 10.5406 24.7591 10.0734C24.5359 9.60633 24.4584 9.08288 24.5367 8.57115C24.615 8.05942 24.8454 7.58308 25.198 7.20404C25.5506 6.825 26.0091 6.5608 26.5138 6.44578C27.0186 6.33076 27.5462 6.37024 28.0282 6.55908C28.5102 6.74793 28.9243 7.07742 29.2166 7.50471C29.5088 7.93199 29.6658 8.43732 29.6671 8.955C29.6832 9.28302 29.6334 9.61093 29.5208 9.91942C29.4081 10.2279 29.2349 10.5107 29.0112 10.7512C28.7875 10.9916 28.518 11.1849 28.2184 11.3195C27.9188 11.4541 27.5954 11.5274 27.2671 11.535ZM17.9471 4.705C17.1045 4.70698 16.2815 4.95876 15.582 5.4285C14.8826 5.89824 14.3381 6.56484 14.0175 7.344C13.6969 8.12317 13.6146 8.97991 13.7809 9.80588C13.9472 10.6319 14.3547 11.39 14.9519 11.9843C15.549 12.5787 16.309 12.9826 17.1358 13.1451C17.9625 13.3075 18.8189 13.2211 19.5965 12.8969C20.3742 12.5726 21.0382 12.0251 21.5047 11.3234C21.9711 10.6218 22.219 9.79755 22.217 8.955C22.2252 8.39294 22.1202 7.83498 21.9082 7.31435C21.6963 6.79371 21.3817 6.32105 20.9833 5.92451C20.5849 5.52796 20.1108 5.21563 19.5891 5.00613C19.0675 4.79662 18.5091 4.69421 17.9471 4.705ZM17.9471 11.535C17.4306 11.5711 16.9153 11.451 16.468 11.1904C16.0207 10.9297 15.6622 10.5406 15.4391 10.0734C15.2159 9.60633 15.1384 9.08288 15.2167 8.57115C15.295 8.05942 15.5254 7.58308 15.878 7.20404C16.2306 6.825 16.6891 6.5608 17.1938 6.44578C17.6986 6.33076 18.2262 6.37024 18.7082 6.55908C19.1902 6.74793 19.6043 7.07742 19.8966 7.50471C20.1888 7.93199 20.3458 8.43732 20.3471 8.955C20.3632 9.28302 20.3134 9.61093 20.2008 9.91942C20.0881 10.2279 19.9149 10.5107 19.6912 10.7512C19.4675 10.9916 19.198 11.1849 18.8984 11.3195C18.5988 11.4541 18.2754 11.5274 17.9471 11.535ZM6.86705 6.015V7.815H11.1871C11.1193 8.66281 10.7669 9.4628 10.1871 10.085C9.75371 10.5265 9.2325 10.8721 8.65716 11.0995C8.08182 11.3269 7.46515 11.431 6.84705 11.405C5.57401 11.405 4.35311 10.8993 3.45294 9.99911C2.55276 9.09894 2.04705 7.87804 2.04705 6.605C2.04705 5.33196 2.55276 4.11106 3.45294 3.21089C4.35311 2.31071 5.57401 1.805 6.84705 1.805C8.0675 1.78685 9.24595 2.25032 10.1271 3.095L11.3971 1.825C10.801 1.23551 10.0934 0.770891 9.31551 0.458373C8.53765 0.145855 7.70524 -0.00827923 6.86705 0.00500023C5.97805 -0.0295976 5.09121 0.115628 4.25967 0.431972C3.42814 0.748316 2.66902 1.22927 2.02781 1.84601C1.3866 2.46275 0.876487 3.20259 0.528046 4.0212C0.179604 4.8398 0 5.72032 0 6.61C0 7.49968 0.179604 8.3802 0.528046 9.1988C0.876487 10.0174 1.3866 10.7572 2.02781 11.374C2.66902 11.9907 3.42814 12.4717 4.25967 12.788C5.09121 13.1044 5.97805 13.2496 6.86705 13.215C7.72247 13.2492 8.57544 13.102 9.36996 12.7832C10.1645 12.4643 10.8826 11.981 11.4771 11.365C12.5272 10.2114 13.0867 8.69418 13.0371 7.135C13.0406 6.75973 13.0105 6.38489 12.9471 6.015H6.86705ZM52.1771 7.415C51.9163 6.64774 51.4286 5.97779 50.7786 5.49385C50.1285 5.00991 49.3469 4.73482 48.5371 4.705C47.9901 4.70393 47.4486 4.81507 46.9463 5.03154C46.4439 5.248 45.9913 5.56521 45.6164 5.96353C45.2415 6.36186 44.9523 6.83285 44.7667 7.34738C44.581 7.86192 44.5029 8.40907 44.5371 8.955C44.5285 9.86785 44.8155 10.759 45.3552 11.4953C45.8948 12.2316 46.6582 12.7735 47.5313 13.0401C48.4044 13.3068 49.3403 13.2838 50.1993 12.9747C51.0582 12.6656 51.7941 12.0869 52.2971 11.325L50.8471 10.325C50.6309 10.6853 50.3243 10.9828 49.9577 11.188C49.5911 11.3933 49.1772 11.4991 48.757 11.495C48.3236 11.5129 47.8949 11.3993 47.5273 11.169C47.1596 10.9388 46.8702 10.6027 46.6971 10.205L52.3871 7.855L52.1771 7.415ZM46.3771 8.835C46.3568 8.52438 46.3987 8.21284 46.5003 7.91862C46.602 7.62439 46.7613 7.35341 46.969 7.12152C47.1766 6.88964 47.4285 6.70152 47.7097 6.56819C47.991 6.43485 48.2961 6.35897 48.6071 6.345C48.9293 6.32533 49.2501 6.40119 49.5294 6.56307C49.8087 6.72494 50.034 6.96564 50.1771 7.255L46.3771 8.835ZM41.757 12.955H43.6271V0.455001H41.757V12.955ZM38.6971 5.655H38.6271C38.3477 5.33686 38.0029 5.08281 37.6163 4.91021C37.2297 4.73762 36.8104 4.65057 36.3871 4.655C35.2942 4.708 34.2637 5.17942 33.509 5.97158C32.7543 6.76374 32.3334 7.8159 32.3334 8.91C32.3334 10.0041 32.7543 11.0563 33.509 11.8484C34.2637 12.6406 35.2942 13.112 36.3871 13.165C36.811 13.1735 37.2316 13.0883 37.6188 12.9154C38.0061 12.7426 38.3503 12.4863 38.6271 12.165H38.6971V12.775C38.6971 14.405 37.8271 15.275 36.4271 15.275C35.9594 15.2647 35.5053 15.1157 35.1225 14.8468C34.7397 14.578 34.4454 14.2014 34.2771 13.765L32.6571 14.435C32.9566 15.1872 33.4773 15.8309 34.1505 16.2808C34.8236 16.7308 35.6174 16.9659 36.4271 16.955C38.6171 16.955 40.4271 15.665 40.4271 12.525V4.955H38.6971V5.655ZM36.5471 11.535C35.8919 11.4942 35.2769 11.2051 34.8274 10.7267C34.3778 10.2482 34.1276 9.61647 34.1276 8.96C34.1276 8.30354 34.3778 7.67176 34.8274 7.19334C35.2769 6.71492 35.8919 6.42585 36.5471 6.385C36.8673 6.39882 37.1815 6.47691 37.4709 6.61464C37.7604 6.75236 38.0191 6.9469 38.2318 7.18668C38.4446 7.42645 38.6069 7.70657 38.7091 8.01036C38.8114 8.31415 38.8515 8.6354 38.827 8.955C38.8543 9.27569 38.8163 9.59859 38.7152 9.90415C38.6141 10.2097 38.4521 10.4916 38.239 10.7328C38.0259 10.974 37.7661 11.1694 37.4752 11.3073C37.1844 11.4452 36.8687 11.5226 36.5471 11.535ZM60.937 0.455001H56.4571V12.955H58.327V8.215H60.937C61.47 8.25329 62.0051 8.18137 62.5091 8.00373C63.013 7.82609 63.4749 7.54653 63.8661 7.18249C64.2572 6.81846 64.5691 6.37774 64.7824 5.88784C64.9957 5.39793 65.1058 4.86933 65.1058 4.335C65.1058 3.80067 64.9957 3.27208 64.7824 2.78217C64.5691 2.29226 64.2572 1.85155 63.8661 1.48751C63.4749 1.12347 63.013 0.843916 62.5091 0.666274C62.0051 0.488632 61.47 0.416713 60.937 0.455001ZM60.937 6.455H58.327V2.195H60.9771C61.2581 2.195 61.5364 2.25035 61.796 2.3579C62.0556 2.46544 62.2915 2.62307 62.4903 2.82179C62.689 3.02051 62.8466 3.25642 62.9542 3.51606C63.0617 3.7757 63.1171 4.05397 63.1171 4.335C63.1171 4.61603 63.0617 4.89431 62.9542 5.15394C62.8466 5.41358 62.689 5.64949 62.4903 5.84821C62.2915 6.04693 62.0556 6.20456 61.796 6.3121C61.5364 6.41965 61.2581 6.475 60.9771 6.475L60.937 6.455ZM72.4771 4.665C71.7961 4.62301 71.1177 4.78155 70.5258 5.12102C69.934 5.46048 69.4546 5.96598 69.147 6.575L70.7971 7.265C70.9638 6.9644 71.214 6.71851 71.5174 6.55703C71.8209 6.39555 72.1646 6.32538 72.507 6.355C72.7444 6.32728 72.985 6.3471 73.2146 6.41333C73.4443 6.47955 73.6584 6.59084 73.8446 6.74071C74.0308 6.89058 74.1852 7.07602 74.299 7.28622C74.4127 7.49642 74.4834 7.72717 74.507 7.965V8.085C73.9057 7.76892 73.2364 7.60416 72.5571 7.605C70.7771 7.605 68.9571 8.605 68.9571 10.425C68.9747 10.8118 69.0698 11.1912 69.2369 11.5405C69.404 11.8899 69.6396 12.2021 69.9297 12.4586C70.2198 12.7151 70.5585 12.9107 70.9256 13.0338C71.2928 13.1569 71.681 13.2049 72.0671 13.175C72.5363 13.201 73.004 13.1017 73.4222 12.8873C73.8405 12.6729 74.1942 12.3511 74.4471 11.955H74.507V12.955H76.3071V8.145C76.3071 5.955 74.647 4.685 72.5171 4.685L72.4771 4.665ZM72.2471 11.515C71.6371 11.515 70.7871 11.205 70.7871 10.455C70.7871 9.455 71.8471 9.115 72.7871 9.115C73.3811 9.10034 73.9682 9.24539 74.4871 9.535C74.4243 10.0781 74.1668 10.58 73.7622 10.9477C73.3577 11.3155 72.8336 11.5241 72.2871 11.535L72.2471 11.515ZM82.8671 4.955L80.7271 10.375H80.667L78.4471 4.955H76.4471L79.777 12.535L77.8771 16.745H79.827L84.9471 4.955H82.8671ZM66.0671 12.955H67.9271V0.455001H66.0671V12.955Z" fill="white"/>
</svg>
