<svg width="136" height="40" viewBox="0 0 136 40" fill="none" xmlns="http://www.w3.org/2000/svg">
<path d="M8.73291 39.9979C8.38151 39.9979 8.03859 39.9938 7.68995 39.9867C6.96771 39.9782 6.24715 39.9212 5.53419 39.8162C4.86939 39.7124 4.22538 39.5193 3.6234 39.2432C3.02694 38.9695 2.48292 38.6106 2.01218 38.1802C1.53463 37.7549 1.13704 37.2616 0.835182 36.7199C0.529995 36.1746 0.318787 35.5902 0.208917 34.9869C0.0902657 34.3387 0.0260706 33.6833 0.016885 33.0262C0.00957279 32.8057 0 32.0714 0 32.0714V7.91524C0 7.91524 0.0101956 7.19223 0.0169427 6.97982C0.0257379 6.32383 0.0895596 5.66941 0.207856 5.0222C0.317929 4.41729 0.5293 3.83117 0.834651 3.28415C1.1354 2.7428 1.53078 2.24915 2.00546 1.82232C2.4796 1.39143 3.02536 1.03064 3.62284 0.753121C4.22343 0.477981 4.86623 0.286241 5.52968 0.184325C6.24498 0.0782559 6.96804 0.0209099 7.69279 0.012768L8.73347 0H127.261L128.314 0.0132804C129.032 0.0210177 129.749 0.0778521 130.457 0.1833C131.128 0.286495 131.777 0.479573 132.384 0.756185C133.581 1.31547 134.555 2.20032 135.17 3.2867C135.47 3.82995 135.678 4.41128 135.787 5.01097C135.907 5.66349 135.974 6.32306 135.988 6.98442C135.991 7.28056 135.991 7.59866 135.991 7.91524C136 8.30737 136 8.68061 136 9.05692V30.942C136 31.3219 136 31.6926 135.991 32.0663C135.991 32.4064 135.991 32.7179 135.986 33.0385C135.973 33.688 135.907 34.3358 135.789 34.9767C135.682 35.5843 135.472 36.1733 135.166 36.723C134.862 37.2588 134.467 37.7478 133.995 38.172C133.524 38.6047 132.979 38.9657 132.381 39.2412C131.775 39.5194 131.127 39.7132 130.457 39.8162C129.744 39.9217 129.024 39.9788 128.302 39.9867C127.964 39.9938 127.61 39.9979 127.267 39.9979L126.016 40L8.73291 39.9979Z" fill="black"/>
</svg>
