<svg width="19" height="23" viewBox="0 0 19 23" fill="none" xmlns="http://www.w3.org/2000/svg">
<path d="M15.5169 12.109C15.5282 11.2362 15.7607 10.3804 16.1928 9.62131C16.6248 8.86218 17.2424 8.22437 17.9881 7.76722C17.5144 7.09258 16.8895 6.53737 16.163 6.14571C15.4364 5.75404 14.6283 5.5367 13.8028 5.51094C12.0419 5.32663 10.3348 6.56169 9.4375 6.56169C8.52281 6.56169 7.14123 5.52924 5.65351 5.55976C4.6912 5.59077 3.75336 5.86981 2.93136 6.36972C2.10936 6.86962 1.43124 7.57333 0.963056 8.41229C-1.065 11.9137 0.447747 17.0596 2.39045 19.8899C3.36243 21.2759 4.49839 22.824 5.98478 22.7691C7.4393 22.7089 7.98253 21.8442 9.73825 21.8442C11.4777 21.8442 11.9874 22.7691 13.5039 22.7342C15.0647 22.7089 16.048 21.3421 16.9859 19.943C17.6843 18.9555 18.2216 17.8641 18.5782 16.7092C17.6714 16.3268 16.8976 15.6866 16.3532 14.8686C15.8088 14.0505 15.518 13.0908 15.5169 12.109Z" fill="white"/>
<path d="M12.6525 3.65013C13.5035 2.6314 13.9227 1.322 13.8212 0C12.5211 0.136171 11.3201 0.755808 10.4576 1.73545C10.0359 2.21403 9.71297 2.7708 9.50718 3.37392C9.30139 3.97705 9.21682 4.61471 9.25831 5.25044C9.90861 5.25712 10.5519 5.11657 11.1399 4.83937C11.7278 4.56216 12.245 4.15554 12.6525 3.65013Z" fill="white"/>
</svg>
