<svg width="9" height="13" viewBox="0 0 9 13" fill="none" xmlns="http://www.w3.org/2000/svg">
<path d="M8.9431 4.83504C8.9431 7.77709 7.36401 9.6673 4.98104 9.6673C4.37739 9.69879 3.77705 9.56012 3.24875 9.26719C2.72046 8.97425 2.28556 8.53887 1.99387 8.01092H1.94878V12.7002H0V0.100805H1.88634V1.67548H1.92218C2.22729 1.15005 2.66953 0.716933 3.20184 0.422208C3.73416 0.127482 4.33665 -0.0178249 4.94519 0.00174543C7.35475 0.00175589 8.9431 1.90116 8.9431 4.83504ZM6.94005 4.83504C6.94005 2.91828 5.94671 1.65812 4.43111 1.65812C2.94214 1.65812 1.94061 2.94482 1.94061 4.83504C1.94061 6.74262 2.94214 8.02013 4.43111 8.02013C5.94672 8.02013 6.94005 6.76917 6.94005 4.83504Z" fill="white"/>
</svg>
