<svg width="9" height="13" viewBox="0 0 9 13" fill="none" xmlns="http://www.w3.org/2000/svg">
<path d="M8.9431 4.83503C8.9431 7.77708 7.36401 9.66729 4.98104 9.66729C4.37739 9.69878 3.77705 9.56011 3.24875 9.26718C2.72046 8.97424 2.28557 8.53886 1.99387 8.01091H1.94878V12.7002H0V0.100795H1.8863V1.67547H1.92214C2.22725 1.15004 2.66949 0.716926 3.20181 0.422202C3.73413 0.127479 4.33662 -0.0178273 4.94516 0.00174594C7.3548 0.00174594 8.9431 1.90115 8.9431 4.83503ZM6.94005 4.83503C6.94005 2.91827 5.94671 1.65811 4.43111 1.65811C2.94214 1.65811 1.94061 2.94481 1.94061 4.83503C1.94061 6.74261 2.94214 8.02012 4.43111 8.02012C5.94672 8.02012 6.94006 6.76916 6.94006 4.83503H6.94005Z" fill="white"/>
</svg>
