<svg width="10" height="14" viewBox="0 0 10 14" fill="none" xmlns="http://www.w3.org/2000/svg">
<path d="M1.99489 9.58391C2.13929 10.8716 3.39377 11.7171 5.10802 11.7171C6.75061 11.7171 7.93237 10.8716 7.93237 9.71049C7.93237 8.70257 7.21962 8.09907 5.53198 7.68547L3.84434 7.28006C1.45318 6.70411 0.343091 5.58897 0.343091 3.77942C0.343091 1.53893 2.30109 0 5.0814 0C7.83301 0 9.71934 1.53893 9.78283 3.77942H7.8156C7.69784 2.48353 6.6236 1.70131 5.05372 1.70131C3.48384 1.70131 2.40961 2.49273 2.40961 3.64463C2.40961 4.56268 3.09573 5.10289 4.77415 5.51643L6.20885 5.86772C8.88061 6.49779 9.99069 7.56802 9.99069 9.46741C9.99069 11.8968 8.0501 13.4184 4.9636 13.4184C2.07576 13.4184 0.125962 11.9326 0 9.58381L1.99489 9.58391Z" fill="white"/>
</svg>
