<svg width="5" height="10" viewBox="0 0 5 10" fill="none" xmlns="http://www.w3.org/2000/svg">
<path d="M8.00044e-06 0.100717H1.85867V1.71213H1.90376C2.02951 1.20885 2.32518 0.764087 2.74105 0.45259C3.15693 0.141092 3.66766 -0.0181449 4.1874 0.0016453C4.41198 0.000863362 4.63594 0.0251865 4.85509 0.0741557V1.89187C4.57157 1.80548 4.27581 1.76581 3.97948 1.77444C3.69637 1.76298 3.41413 1.81276 3.15214 1.92035C2.89015 2.02794 2.6546 2.19079 2.46168 2.39772C2.26876 2.60465 2.12303 2.85077 2.0345 3.11917C1.94596 3.38757 1.91672 3.67189 1.94878 3.95262V9.56814H0L8.00044e-06 0.100717Z" fill="white"/>
</svg>
