<svg width="9" height="10" viewBox="0 0 9 10" fill="none" xmlns="http://www.w3.org/2000/svg">
<path d="M8.56417 6.80316C8.30201 8.52181 6.62359 9.70129 4.47614 9.70129C1.71427 9.70129 0 7.856 0 4.89558C0 1.92596 1.72348 0 4.39422 0C7.02092 0 8.67273 1.79933 8.67273 4.66989V5.33571H1.96722V5.45314C1.93627 5.80157 1.98001 6.15257 2.09554 6.48285C2.21108 6.81312 2.39577 7.1151 2.63733 7.36873C2.87889 7.62236 3.17179 7.82184 3.4966 7.95392C3.8214 8.086 4.17067 8.14765 4.52121 8.13478C4.98173 8.17781 5.44387 8.07145 5.83891 7.83152C6.23394 7.5916 6.54075 7.23092 6.71371 6.80315L8.56417 6.80316ZM1.97643 3.97753H6.72292C6.74041 3.66424 6.69279 3.35073 6.58302 3.05667C6.47325 2.76261 6.30371 2.49435 6.08505 2.26872C5.86638 2.0431 5.60331 1.86498 5.31235 1.74554C5.02138 1.62611 4.7088 1.56793 4.39422 1.57467C4.07687 1.57278 3.76229 1.63359 3.46863 1.75357C3.17496 1.87356 2.90804 2.05035 2.68326 2.27375C2.45847 2.49714 2.28028 2.76272 2.15896 3.05515C2.03765 3.34758 1.97561 3.66107 1.97643 3.97754V3.97753Z" fill="white"/>
</svg>
