<svg width="6" height="7" viewBox="0 0 6 7" fill="none" xmlns="http://www.w3.org/2000/svg">
<path d="M2.26009 0.00708022C2.66865 -0.0221567 3.07862 0.0393931 3.46045 0.187289C3.84227 0.335185 4.18641 0.565741 4.46806 0.862326C4.74971 1.15891 4.96183 1.51413 5.08914 1.90237C5.21645 2.29061 5.25576 2.70218 5.20425 3.1074C5.20425 5.10076 4.12388 6.24659 2.26009 6.24659H0V0.00708022H2.26009ZM0.971821 5.36419H2.15153C2.44348 5.38159 2.73564 5.33385 3.00675 5.22446C3.27787 5.11506 3.52111 4.94676 3.71877 4.7318C3.91643 4.51684 4.06353 4.26064 4.14937 3.98184C4.23522 3.70303 4.25764 3.40865 4.215 3.12012C4.25454 2.83273 4.22985 2.54017 4.14269 2.26341C4.05553 1.98665 3.90806 1.73255 3.71085 1.5193C3.51364 1.30605 3.27157 1.13894 3.00199 1.02994C2.73241 0.920938 2.44199 0.872749 2.15153 0.888822H0.971821V5.36419Z" fill="white"/>
</svg>
