<svg width="5" height="5" viewBox="0 0 5 5" fill="none" xmlns="http://www.w3.org/2000/svg">
<path d="M0.0105337 2.44314C-0.0191522 2.1337 0.0163471 1.82149 0.114751 1.52653C0.213156 1.23157 0.372291 0.96038 0.581957 0.730345C0.791623 0.50031 1.04719 0.316513 1.33226 0.190741C1.61733 0.0649691 1.92562 0 2.23734 0C2.54907 0 2.85736 0.0649691 3.14243 0.190741C3.4275 0.316513 3.68307 0.50031 3.89273 0.730345C4.1024 0.96038 4.26154 1.23157 4.35994 1.52653C4.45834 1.82149 4.49384 2.1337 4.46415 2.44314C4.4944 2.7529 4.45933 3.06555 4.36119 3.36098C4.26304 3.65642 4.104 3.92811 3.89428 4.1586C3.68456 4.38908 3.4288 4.57326 3.14345 4.69931C2.85809 4.82535 2.54944 4.89046 2.23734 4.89046C1.92525 4.89046 1.6166 4.82535 1.33124 4.69931C1.04588 4.57326 0.790128 4.38908 0.580409 4.1586C0.37069 3.92811 0.211647 3.65642 0.113503 3.36098C0.0153594 3.06555 -0.0197156 2.7529 0.0105337 2.44314ZM3.50563 2.44314C3.50563 1.42247 3.04582 0.825587 2.23888 0.825587C1.42885 0.825587 0.973179 1.42247 0.973179 2.44315C0.973179 3.47201 1.42888 4.06429 2.23888 4.06429C3.04585 4.06428 3.50564 3.46791 3.50564 2.44314H3.50563Z" fill="white"/>
</svg>
