<svg width="5" height="5" viewBox="0 0 5 5" fill="none" xmlns="http://www.w3.org/2000/svg">
<path d="M8.00043e-06 0.0955279H0.897073V0.843545H0.966712C1.08485 0.574884 1.28409 0.349671 1.53668 0.199293C1.78926 0.0489158 2.0826 -0.0191323 2.37581 0.0046351C2.60557 -0.0125906 2.83626 0.0219547 3.05081 0.105711C3.26536 0.189467 3.45826 0.320288 3.61522 0.488482C3.77219 0.656676 3.88919 0.857931 3.95756 1.07734C4.02593 1.29675 4.04392 1.52868 4.0102 1.75597V4.80417H3.07831V1.98933C3.07831 1.23263 2.74857 0.856314 2.05938 0.856314C1.90339 0.849069 1.74767 0.875544 1.60289 0.933926C1.45812 0.992307 1.32773 1.08121 1.22063 1.19455C1.11354 1.30789 1.03229 1.44298 0.982453 1.59056C0.932614 1.73814 0.915364 1.89472 0.931886 2.04957V4.80423H0L8.00043e-06 0.0955279Z" fill="white"/>
</svg>
