<svg width="5" height="5" viewBox="0 0 5 5" fill="none" xmlns="http://www.w3.org/2000/svg">
<path d="M0.0105075 2.44323C-0.0191556 2.13377 0.0163655 1.82154 0.114793 1.52657C0.21322 1.2316 0.372383 0.960399 0.58207 0.730358C0.791757 0.500318 1.04734 0.316518 1.33243 0.190744C1.61752 0.0649702 1.92583 0 2.23757 0C2.54932 0 2.85762 0.0649702 3.14271 0.190744C3.4278 0.316518 3.68339 0.500318 3.89307 0.730358C4.10276 0.960399 4.26192 1.2316 4.36034 1.52657C4.45877 1.82154 4.49429 2.13377 4.46463 2.44323C4.49484 2.753 4.45974 3.06565 4.36156 3.36108C4.26339 3.65652 4.10432 3.9282 3.89458 4.15868C3.68484 4.38916 3.42907 4.57334 3.1437 4.69938C2.85833 4.82541 2.54968 4.89052 2.23757 4.89052C1.92547 4.89052 1.61681 4.82541 1.33144 4.69938C1.04607 4.57334 0.790301 4.38916 0.580562 4.15868C0.370822 3.9282 0.211755 3.65652 0.113581 3.36108C0.0154066 3.06565 -0.0197034 2.753 0.0105075 2.44323ZM3.5056 2.44323C3.5056 1.42256 3.04579 0.825675 2.23885 0.825675C1.42882 0.825675 0.973154 1.42256 0.973154 2.44324C0.973154 3.47209 1.42885 4.06438 2.23885 4.06438C3.0458 4.06437 3.5056 3.46799 3.5056 2.44323H3.5056Z" fill="white"/>
</svg>
