<svg width="4" height="5" viewBox="0 0 4 5" fill="none" xmlns="http://www.w3.org/2000/svg">
<path d="M0 3.46795C0 2.62036 0.632868 2.13173 1.75625 2.06228L3.0353 1.98876V1.58233C3.0353 1.08501 2.70555 0.804183 2.06859 0.804183C1.54838 0.804183 1.18791 0.994636 1.08448 1.32754H0.182282C0.277519 0.51876 1.04045 0 2.1116 0C3.29542 0 3.9631 0.587682 3.9631 1.58233V4.79958H3.06602V4.13785H2.99229C2.84263 4.37522 2.63249 4.56872 2.38331 4.69861C2.13413 4.8285 1.85484 4.89011 1.57397 4.87716C1.37575 4.89772 1.1754 4.87663 0.985846 4.81525C0.796294 4.75387 0.621745 4.65356 0.47345 4.52079C0.325155 4.38802 0.20641 4.22573 0.124863 4.04439C0.043316 3.86305 0.000780993 3.66669 0 3.46795ZM3.0353 3.0656V2.67193L1.88221 2.74546C1.23194 2.78885 0.937003 3.00943 0.937003 3.42454C0.937003 3.84833 1.30566 4.09495 1.81261 4.09495C1.96114 4.10994 2.11118 4.09499 2.2538 4.05097C2.39642 4.00696 2.52871 3.93479 2.64278 3.83875C2.75686 3.74271 2.8504 3.62477 2.91783 3.49195C2.98526 3.35912 3.02521 3.21413 3.0353 3.0656Z" fill="white"/>
</svg>
