<svg width="5" height="7" viewBox="0 0 5 7" fill="none" xmlns="http://www.w3.org/2000/svg">
<path d="M0 4.19046C0 2.70259 0.767022 1.76003 1.96004 1.76003C2.25514 1.74647 2.54802 1.81696 2.80444 1.96324C3.06085 2.10953 3.27021 2.32558 3.40805 2.58613H3.4777V0H4.40958V6.54684H3.51661V5.8029H3.44288C3.29439 6.0617 3.07772 6.27505 2.81635 6.41987C2.55498 6.56468 2.25885 6.63542 1.96005 6.62444C0.75883 6.62449 0 5.68191 0 4.19046ZM0.962643 4.19046C0.962643 5.18919 1.43474 5.79016 2.22429 5.79016C3.00971 5.79016 3.49513 5.18052 3.49513 4.19455C3.49513 3.21319 3.00462 2.59485 2.22429 2.59485C1.43983 2.59485 0.962611 3.19991 0.962611 4.19046H0.962643Z" fill="white"/>
</svg>
