<svg width="5" height="5" viewBox="0 0 5 5" fill="none" xmlns="http://www.w3.org/2000/svg">
<path d="M0.0105342 2.44314C-0.0191516 2.1337 0.0163437 1.82149 0.114748 1.52653C0.213152 1.23157 0.372291 0.96038 0.581957 0.730345C0.791622 0.50031 1.04718 0.316513 1.33225 0.190741C1.61732 0.0649691 1.92561 0 2.23734 0C2.54907 0 2.85735 0.0649691 3.14242 0.190741C3.42749 0.316513 3.68305 0.50031 3.89272 0.730345C4.10238 0.96038 4.26152 1.23157 4.35993 1.52653C4.45833 1.82149 4.49383 2.1337 4.46415 2.44314C4.4944 2.7529 4.45932 3.06555 4.36117 3.36098C4.26303 3.65642 4.10399 3.92811 3.89427 4.1586C3.68455 4.38908 3.42879 4.57326 3.14344 4.69931C2.85808 4.82535 2.54944 4.89046 2.23734 4.89046C1.92524 4.89046 1.61659 4.82535 1.33124 4.69931C1.04588 4.57326 0.790124 4.38908 0.580405 4.1586C0.370685 3.92811 0.211643 3.65642 0.1135 3.36098C0.0153559 3.06555 -0.019715 2.7529 0.0105342 2.44314ZM3.50562 2.44314C3.50562 1.42247 3.04582 0.825587 2.23888 0.825587C1.42885 0.825587 0.973177 1.42247 0.973177 2.44315C0.973177 3.47201 1.42888 4.06429 2.23888 4.06429C3.04583 4.06428 3.50562 3.46791 3.50562 2.44314Z" fill="white"/>
</svg>
