<svg width="5" height="7" viewBox="0 0 5 7" fill="none" xmlns="http://www.w3.org/2000/svg">
<path d="M0 0H0.923698V2.59484H0.997422C1.1213 2.32367 1.32602 2.09719 1.58366 1.94624C1.84131 1.7953 2.13935 1.72724 2.4372 1.75134C2.66576 1.73894 2.89424 1.77699 3.10636 1.86278C3.31848 1.94858 3.50899 2.07999 3.66432 2.24766C3.81964 2.41532 3.93594 2.6151 4.00493 2.83275C4.07391 3.05039 4.09387 3.28054 4.0634 3.50677V6.54685H3.13058V3.73601C3.13058 2.98391 2.77928 2.603 2.12086 2.603C1.96069 2.5899 1.79959 2.61186 1.64882 2.66734C1.49805 2.72282 1.36126 2.81047 1.24801 2.92418C1.13477 3.03789 1.0478 3.17489 0.993205 3.32562C0.938608 3.47634 0.917695 3.63714 0.93193 3.79677V6.54683H4.00022e-05L0 0Z" fill="white"/>
</svg>
