<svg width="5" height="5" viewBox="0 0 5 5" fill="none" xmlns="http://www.w3.org/2000/svg">
<path d="M4.24744 3.52828C4.12083 3.95863 3.84651 4.33088 3.47247 4.57991C3.09844 4.82894 2.6485 4.9389 2.20138 4.89054C1.89029 4.89873 1.58113 4.83931 1.29538 4.71641C1.00962 4.59352 0.75411 4.41008 0.546575 4.17884C0.33904 3.94759 0.184457 3.67408 0.0935498 3.37729C0.00264222 3.0805 -0.022406 2.76754 0.0201377 2.46012C-0.0212885 2.15176 0.00420076 1.83812 0.0948939 1.54044C0.185587 1.24276 0.339365 0.967986 0.545807 0.734719C0.752248 0.501452 1.00654 0.315139 1.29146 0.188393C1.57639 0.0616461 1.8853 -0.00257396 2.19727 7.89675e-05C3.51114 7.89675e-05 4.30376 0.895195 4.30376 2.37381V2.69807H0.96943V2.75015C0.954838 2.92294 0.976623 3.09687 1.03338 3.26079C1.09013 3.4247 1.18061 3.57498 1.29901 3.70198C1.41741 3.82899 1.56112 3.92992 1.72092 3.99831C1.88072 4.06669 2.05309 4.10102 2.22697 4.0991C2.44988 4.12578 2.67572 4.08575 2.87576 3.98411C3.0758 3.88246 3.241 3.72378 3.35036 3.52825L4.24744 3.52828ZM0.969406 2.0108H3.35443C3.36618 1.85276 3.34464 1.69403 3.29121 1.54479C3.23777 1.39555 3.15362 1.2591 3.04416 1.14423C2.9347 1.02935 2.80235 0.938577 2.65561 0.877744C2.50888 0.81691 2.351 0.787359 2.19213 0.790991C2.03096 0.788972 1.87101 0.819148 1.72171 0.879741C1.57242 0.940334 1.4368 1.03012 1.32285 1.1438C1.2089 1.25748 1.11892 1.39276 1.05823 1.54166C0.99753 1.69056 0.967335 1.85008 0.96943 2.0108H0.969406Z" fill="white"/>
</svg>
