<svg width="18" height="18" viewBox="0 0 18 18" fill="none" xmlns="http://www.w3.org/2000/svg">
<path d="M17.5273 15.9339C17.5273 17.5273 15.9339 17.5273 15.9339 17.5273L11.3757 12.9691C10.1935 13.828 8.74332 14.3405 7.17025 14.3405C3.2102 14.3405 0 11.1303 0 7.17026C0 3.2102 3.21018 0 7.17023 0C11.1303 0 14.3405 3.2102 14.3405 7.17026C14.3405 8.74332 13.828 10.1934 12.9691 11.3757L17.5273 15.9339ZM7.17023 1.5934C4.09021 1.5934 1.59336 4.09024 1.59336 7.17028C1.59336 10.2503 4.09019 12.7472 7.17023 12.7472C10.2503 12.7472 12.7471 10.2503 12.7471 7.17028C12.7471 4.09024 10.2503 1.5934 7.17023 1.5934Z" fill="#999999"/>
</svg>
