<svg width="15" height="15" viewBox="0 0 15 15" fill="none" xmlns="http://www.w3.org/2000/svg">
<path d="M14 14.6667C13.7333 14.6667 13.5333 14.5333 13.4 14.2667L12.4667 12.4H8.13333L7.2 14.2667C7.06667 14.6 6.66667 14.7333 6.33333 14.5333C5.93333 14.4 5.8 14 6 13.7333L7.13333 11.5333L9.4 7C9.6 6.66667 9.93333 6.4 10.3333 6.4C10.7333 6.4 11.0667 6.6 11.2667 7L13.5333 11.5333L14.6667 13.7333C14.8 14.0667 14.6667 14.4667 14.4 14.6C14.2 14.6667 14.1333 14.6667 14 14.6667ZM8.8 11.1333H11.8L10.2667 8.13333L8.8 11.1333ZM0.666667 12.5333C0.4 12.5333 0.2 12.4 0.0666667 12.1333C-0.0666667 11.8 0.0666667 11.4 0.4 11.2667C1.86667 10.5333 3.2 9.53333 4.26667 8.33333C3.53333 7.33333 2.93333 6.33333 2.53333 5.33333C2.4 5 2.6 4.6 2.93333 4.46667C3.26667 4.33333 3.66667 4.53333 3.8 4.86667C4.13333 5.66667 4.53333 6.46667 5.06667 7.2C6 5.86667 6.66667 4.4 7.06667 2.8H0.666667C0.266667 2.8 -1.5625e-08 2.53333 0 2.13333C1.5625e-08 1.73333 0.266667 1.46667 0.666667 1.46667H4.46667V0.666667C4.46667 0.266667 4.73333 -1.5625e-08 5.13333 0C5.53333 1.5625e-08 5.8 0.266667 5.8 0.666667V1.46667H9.53333C9.93333 1.46667 10.2 1.73333 10.2 2.13333C10.2 2.53333 9.93333 2.8 9.53333 2.8H8.46667C8.06667 4.8 7.13333 6.66667 5.93333 8.26667L6.33333 8.66667C6.6 8.93333 6.6 9.33333 6.33333 9.6C6.06667 9.86667 5.66667 9.86667 5.4 9.6L5.13333 9.33333C4 10.6 2.6 11.6667 1 12.4667C0.866667 12.4667 0.733333 12.5333 0.666667 12.5333Z" fill="black"/>
</svg>
