<svg width="9" height="9" viewBox="0 0 9 9" fill="none" xmlns="http://www.w3.org/2000/svg">
<path d="M4.08334 8.16667C3.27573 8.16667 2.48626 7.92719 1.81476 7.4785C1.14326 7.02982 0.619885 6.39209 0.310827 5.64596C0.00176925 4.89983 -0.0790944 4.07881 0.0784619 3.28672C0.236018 2.49463 0.624918 1.76705 1.19598 1.19598C1.76705 0.624918 2.49463 0.236018 3.28672 0.0784619C4.07881 -0.0790944 4.89983 0.00176925 5.64596 0.310827C6.39209 0.619885 7.02982 1.14326 7.4785 1.81476C7.92719 2.48626 8.16667 3.27573 8.16667 4.08333C8.16667 5.1663 7.73646 6.20491 6.97069 6.97069C6.20491 7.73646 5.1663 8.16667 4.08334 8.16667ZM4.08334 1.16667C3.50647 1.16667 2.94257 1.33773 2.46292 1.65822C1.98328 1.9787 1.60944 2.43422 1.38869 2.96718C1.16793 3.50013 1.11017 4.08657 1.22271 4.65235C1.33525 5.21813 1.61304 5.73783 2.02094 6.14573C2.42884 6.55363 2.94854 6.83142 3.51432 6.94396C4.0801 7.0565 4.66654 6.99874 5.1995 6.77798C5.73245 6.55723 6.18797 6.18339 6.50846 5.70375C6.82894 5.22411 7 4.6602 7 4.08333C7 3.70031 6.92456 3.32104 6.77798 2.96718C6.63141 2.61331 6.41657 2.29178 6.14573 2.02094C5.87489 1.7501 5.55336 1.53526 5.1995 1.38869C4.84563 1.24211 4.46636 1.16667 4.08334 1.16667Z" fill="black"/>
</svg>
