<svg width="13" height="6" viewBox="0 0 13 6" fill="none" xmlns="http://www.w3.org/2000/svg">
<path d="M11.1084 5.83416H1.72837C1.43543 5.83397 1.14746 5.75849 0.892083 5.61497C0.636709 5.47145 0.422509 5.26471 0.27004 5.01457C0.108636 4.7588 0.0162738 4.46556 0.00196103 4.16346C-0.0123517 3.86136 0.0518736 3.56071 0.188373 3.29082C0.871288 1.91664 1.98461 0.803319 3.35879 0.120405C3.57683 0.0118735 3.82371 -0.0245777 4.06381 0.0163124C4.30391 0.0572025 4.5248 0.173319 4.69462 0.347905L6.41837 2.1154L8.14212 0.347905C8.31194 0.173319 8.53284 0.0572025 8.77294 0.0163124C9.01304 -0.0245777 9.25992 0.0118735 9.47796 0.120405C10.8521 0.803319 11.9655 1.91664 12.6484 3.29082C12.7849 3.56071 12.8491 3.86136 12.8348 4.16346C12.8205 4.46556 12.7281 4.7588 12.5667 5.01457C12.4142 5.26471 12.2 5.47145 11.9447 5.61497C11.6893 5.75849 11.4013 5.83397 11.1084 5.83416ZM3.85754 1.16749C2.72224 1.74738 1.80236 2.67543 1.23254 3.81582C1.18712 3.90743 1.16594 4.00916 1.17105 4.11129C1.17616 4.21342 1.20737 4.31253 1.26171 4.39915C1.30964 4.48043 1.37783 4.54787 1.45963 4.59491C1.54142 4.64194 1.63402 4.66695 1.72837 4.66749H11.1084C11.2027 4.66695 11.2953 4.64194 11.3771 4.59491C11.4589 4.54787 11.5271 4.48043 11.575 4.39915C11.6294 4.31253 11.6606 4.21342 11.6657 4.11129C11.6708 4.00916 11.6496 3.90743 11.6042 3.81582C11.0387 2.67452 10.1174 1.74807 8.97921 1.17624L7.23796 2.94665C7.13162 3.05656 7.00426 3.14395 6.86346 3.20364C6.72267 3.26332 6.5713 3.29408 6.41837 3.29408C6.26545 3.29408 6.11408 3.26332 5.97328 3.20364C5.83248 3.14395 5.70513 3.05656 5.59879 2.94665L3.85754 1.16749Z" fill="black"/>
</svg>
